<?xml version="1.0"?><svg xmlns="http://www.w3.org/2000/svg" xmlns:xlink= "http://www.w3.org/1999/xlink" class="recharts-surface" width="400" height="400" viewBox="0 0 400 400" version="1.1"><defs><clipPath id="recharts396-clip"><rect x="5" y="5" height="390" width="390"></rect></clipPath></defs><g class="recharts-layer recharts-line"><path stroke="#8884d8" stroke-width="1" fill="none" points="[object Object],[object Object],[object Object],[object Object],[object Object],[object Object],[object Object]" width="390" height="390" class="recharts-curve recharts-line-curve" type="monotone" d="M5,383.29999999999995C26.666666666666668,381.34999999999997,48.33333333333333,379.4,70,379.4C91.66666666666667,379.4,113.33333333333333,381.99999999999994,135,383.29999999999995C156.66666666666666,384.59999999999997,178.33333333333334,387.2,200,387.2C221.66666666666666,387.2,243.33333333333334,384.158,265,384.158C286.6666666666667,384.158,308.3333333333333,387.62899999999996,330,387.62899999999996C351.6666666666667,387.62899999999996,373.3333333333333,387.62899999999996,395,387.62899999999996"></path><g class="recharts-layer recharts-line-dots"><circle r="3" type="monotone" stroke="#8884d8" stroke-width="1" fill="#fff" points="[object Object],[object Object],[object Object],[object Object],[object Object],[object Object],[object Object]" width="390" height="390" cx="5" cy="383.29999999999995" class="recharts-dot recharts-line-dot"></circle><circle r="3" type="monotone" stroke="#8884d8" stroke-width="1" fill="#fff" points="[object Object],[object Object],[object Object],[object Object],[object Object],[object Object],[object Object]" width="390" height="390" cx="70" cy="379.4" class="recharts-dot recharts-line-dot"></circle><circle r="3" type="monotone" stroke="#8884d8" stroke-width="1" fill="#fff" points="[object Object],[object Object],[object Object],[object Object],[object Object],[object Object],[object Object]" width="390" height="390" cx="135" cy="383.29999999999995" class="recharts-dot recharts-line-dot"></circle><circle r="3" type="monotone" stroke="#8884d8" stroke-width="1" fill="#fff" points="[object Object],[object Object],[object Object],[object Object],[object Object],[object Object],[object Object]" width="390" height="390" cx="200" cy="387.2" class="recharts-dot recharts-line-dot"></circle><circle r="3" type="monotone" stroke="#8884d8" stroke-width="1" fill="#fff" points="[object Object],[object Object],[object Object],[object Object],[object Object],[object Object],[object Object]" width="390" height="390" cx="265" cy="384.158" class="recharts-dot recharts-line-dot"></circle><circle r="3" type="monotone" stroke="#8884d8" stroke-width="1" fill="#fff" points="[object Object],[object Object],[object Object],[object Object],[object Object],[object Object],[object Object]" width="390" height="390" cx="330" cy="387.62899999999996" class="recharts-dot recharts-line-dot"></circle><circle r="3" type="monotone" stroke="#8884d8" stroke-width="1" fill="#fff" points="[object Object],[object Object],[object Object],[object Object],[object Object],[object Object],[object Object]" width="390" height="390" cx="395" cy="387.62899999999996" class="recharts-dot recharts-line-dot"></circle></g></g><g class="recharts-layer recharts-line"><path stroke="#82ca9d" stroke-width="1" fill="none" points="[object Object],[object Object],[object Object],[object Object],[object Object],[object Object],[object Object]" width="390" height="390" class="recharts-curve recharts-line-curve" type="monotone" d="M5,293.6C26.666666666666668,259.1435,48.33333333333333,224.687,70,224.687C91.66666666666667,224.687,113.33333333333333,340.478,135,340.478C156.66666666666666,340.478,178.33333333333334,12.800000000000008,200,12.800000000000008C221.66666666666666,12.800000000000008,243.33333333333334,242.588,265,242.588C286.6666666666667,242.588,308.3333333333333,207.8,330,207.8C351.6666666666667,207.8,373.3333333333333,207.8,395,207.8"></path><g class="recharts-layer recharts-line-dots"><circle r="3" type="monotone" stroke="#82ca9d" stroke-width="1" fill="#fff" points="[object Object],[object Object],[object Object],[object Object],[object Object],[object Object],[object Object]" width="390" height="390" cx="5" cy="293.6" class="recharts-dot recharts-line-dot"></circle><circle r="3" type="monotone" stroke="#82ca9d" stroke-width="1" fill="#fff" points="[object Object],[object Object],[object Object],[object Object],[object Object],[object Object],[object Object]" width="390" height="390" cx="70" cy="224.687" class="recharts-dot recharts-line-dot"></circle><circle r="3" type="monotone" stroke="#82ca9d" stroke-width="1" fill="#fff" points="[object Object],[object Object],[object Object],[object Object],[object Object],[object Object],[object Object]" width="390" height="390" cx="135" cy="340.478" class="recharts-dot recharts-line-dot"></circle><circle r="3" type="monotone" stroke="#82ca9d" stroke-width="1" fill="#fff" points="[object Object],[object Object],[object Object],[object Object],[object Object],[object Object],[object Object]" width="390" height="390" cx="200" cy="12.800000000000008" class="recharts-dot recharts-line-dot"></circle><circle r="3" type="monotone" stroke="#82ca9d" stroke-width="1" fill="#fff" points="[object Object],[object Object],[object Object],[object Object],[object Object],[object Object],[object Object]" width="390" height="390" cx="265" cy="242.588" class="recharts-dot recharts-line-dot"></circle><circle r="3" type="monotone" stroke="#82ca9d" stroke-width="1" fill="#fff" points="[object Object],[object Object],[object Object],[object Object],[object Object],[object Object],[object Object]" width="390" height="390" cx="330" cy="207.8" class="recharts-dot recharts-line-dot"></circle><circle r="3" type="monotone" stroke="#82ca9d" stroke-width="1" fill="#fff" points="[object Object],[object Object],[object Object],[object Object],[object Object],[object Object],[object Object]" width="390" height="390" cx="395" cy="207.8" class="recharts-dot recharts-line-dot"></circle></g></g></svg>